<?xml version="1.0" encoding="UTF-8"?>
<svg id="Layer_1" data-name="Layer 1" xmlns="http://www.w3.org/2000/svg" viewBox="0 0 960 960">
  <defs>
    <style>
      .cls-1 {
        stroke-width: 0px;
      }
    </style>
  </defs>
  <path class="cls-1" d="M518.37,288.26c7.35-.66,15.39-.66,23.61-.17,1,.28,1.84.21,2.86.35,34.12,4.71,60.11,21.87,77.86,51.24,11.79,19.5,17.18,41.04,18.64,63.61.39,6.07.06,12.18.06,19.38,1.48-1.31,1.75-1.46,1.87-1.68.6-1.06,1.16-2.13,1.73-3.2,16.02-30.03,36.32-56.76,61.92-79.29,27.13-23.87,57.58-41.51,93.49-48.6,4.14-.82,8.31-1.51,12.46-2.26,7.91,0,15.82,0,23.73,0,1.15.29,2.29.71,3.45.86,15.12,1.96,29.27,6.76,42.16,14.89,28.91,18.23,44.3,45.4,51,78.07,1.79,8.71,2.54,17.64,3.77,26.46v18.23c-1.01,8.41-1.59,16.9-3.09,25.22-11.74,65-42.95,119.18-92.4,162.72-28.09,24.73-60.16,42.28-97.82,47.54-35.27,4.92-66.84-3.48-92.81-28.61-21.34-20.66-31.4-46.87-35.07-75.78-1.19-9.36-1.44-18.84-2.17-28.97-1.09,1.95-1.88,3.34-2.64,4.75-17.97,33.43-41.02,62.77-70.78,86.53-29.28,23.38-61.68,40.27-99.77,42.9-43.83,3.02-78.34-13.78-101.63-51.42-14.22-22.98-18.93-48.7-19.46-75.36-.04-2.26,0-4.53,0-6.8-1.92,1.74-2.86,3.47-3.79,5.2-14.44,26.81-32.39,51.01-54.61,71.9-28.86,27.14-61.63,47.25-101.17,54.82-57.03,10.92-107.42-17.97-126.5-72.67-10.31-29.56-10.98-59.87-5.62-90.36,9.72-55.27,35.06-102.79,73.32-143.49,26.33-28.01,57.16-49.46,94.43-60.54,9.11-2.71,18.61-4.09,27.94-6.08,7.91,0,15.82,0,23.73,0,1,.28,1.97.69,2.99.84,33.73,4.69,59.55,21.55,77.33,50.48,12.02,19.56,17.51,41.21,19.09,63.91.44,6.34.07,12.74.07,19.11.45.01.9.02,1.36.03.85-1.58,1.69-3.17,2.54-4.75,15.03-28.07,33.86-53.27,57.34-74.86,28.1-25.84,59.89-44.98,97.87-52.51,4.14-.82,7.74-1.48,12.7-1.59ZM905.78,414.28c-.41-4.5-.79-12.56-1.96-20.49-.93-6.27-2.44-12.52-4.35-18.58-11.7-37.05-40.46-57.86-78.64-56.4-24.5.93-46.7,9.75-66.79,23.19-58.16,38.92-92.97,93.49-106.08,161.83-4.75,24.74-3.98,49.6,4.36,73.74,12.8,37.06,42.8,56.73,81.73,53.74,20.28-1.56,38.77-8.67,56.16-18.73,36.76-21.27,64-51.8,84.81-88.34,18.78-32.98,30.03-68.2,30.77-109.98ZM349.41,532.63c1.77,11.97,2.64,24.16,5.48,35.87,11.12,45.74,46.54,69.11,92.99,61.76,21.87-3.46,41.72-12.4,59.48-25.25,58.65-42.42,93.38-99.48,102.53-171.39,2.8-22.03.72-43.96-7.59-64.93-12.97-32.71-39.92-50.79-75.06-49.93-21.15.52-40.53,7.48-58.78,17.66-37.41,20.87-65.1,51.38-86.34,88.04-19.34,33.38-30.98,69.11-32.72,108.16ZM257.96,563.55c1.01-1.12,1.55-1.66,2.02-2.25,26.05-32.16,44.42-68.07,52.42-108.84,5.25-26.73,5.55-53.44-3.38-79.62-12.85-37.67-44.67-57.86-84.04-53.56-22.1,2.41-42.22,10.45-60.49,22.61-56.68,37.75-91.09,90.75-105.32,156.9-5.47,25.42-5.36,51,2.57,76.1,12.34,39.02,42.65,59.89,83.45,56.22,34.91-3.13,63.44-20.4,89.04-43.19.08-.07.05-.28.11-.69-7.15-7.18-14.55-14.36-21.62-21.85-2.47-2.62-4.44-2.91-7.81-1.72-36.1,12.79-74.57-12-76.45-50.17-1.2-24.38-.15-48.88-.08-73.32,0-1.35.24-2.72.5-4.06,5.89-30.24,32.61-50.29,62.95-47.24,29.33,2.94,51.47,27.86,51.56,58.11.06,19.44-.14,38.88.07,58.32.12,11.48-1.88,22.31-7.42,32.46-.54.99-.5,3.1.19,3.82,7.03,7.32,14.25,14.46,21.74,21.96ZM168.24,477.53s.04,0,.06,0c0,14.42-.24,28.85.09,43.27.22,9.78,7.99,16.85,17.47,16.77,9.39-.08,17.22-7.43,17.28-17.06.19-28.39.14-56.79.02-85.18-.03-7.74-5.13-14.2-12.22-16.42-11.48-3.59-22.44,4.55-22.64,17.17-.23,13.81-.05,27.63-.05,41.45Z"/>
  <path class="cls-1" d="M724.56,397.31c12.03,0,23.12-.12,34.2.16,1.36.03,3.2,1.95,3.92,3.43,8.07,16.48,15.96,33.06,24.27,50.38,1-1.93,1.75-3.28,2.42-4.67,7.23-15.04,14.53-30.06,21.6-45.17,1.4-2.99,2.98-4.3,6.45-4.21,10.46.25,20.92.09,31.98.09-.76,1.85-1.25,3.2-1.87,4.49-12.83,26.83-25.72,53.63-38.44,80.51-1.24,2.63-1.95,5.76-1.98,8.67-.23,21.41-.23,42.82-.3,64.23,0,1.35,0,2.71,0,4.43h-39.64v-5.02c0-20.96.09-41.92-.1-62.87-.03-3.2-.77-6.65-2.13-9.53-12.56-26.62-25.34-53.14-38.04-79.7-.7-1.46-1.34-2.95-2.36-5.2Z"/>
  <path class="cls-1" d="M538.12,446.88h-40.04c0-3.63.03-7.21,0-10.79-.1-10.18-7.53-17.94-17.24-18.05-9.83-.11-17.54,7.77-17.56,18.17-.05,27.78-.05,55.56,0,83.33.02,10.42,7.68,18.14,17.64,18.01,9.74-.12,17.07-7.82,17.17-18.06.03-3.48,0-6.97,0-10.84h40.77c-.99,5.89-1.37,11.78-3,17.29-8.28,27.97-35.56,44.87-64.67,40.4-27.47-4.22-48.06-28.52-48.11-56.87-.04-21.55-.17-43.11.03-64.66.28-30.17,25.09-55.2,55.37-56.13,30.89-.95,57.21,22.07,59.63,52.21.15,1.8.02,3.63.02,5.99Z"/>
</svg>